<?xml version="1.0" encoding="UTF-8"?>
<svg width="829px" height="167px" viewBox="0 0 829 167" version="1.1" xmlns="http://www.w3.org/2000/svg" xmlns:xlink="http://www.w3.org/1999/xlink">
    <title>Group 11 Copy</title>
    <g id="Movies" stroke="none" stroke-width="1" fill="none" fill-rule="evenodd" opacity="0.195172991">
        <g id="List" transform="translate(383.000000, -14.000000)" fill="#D8D8D8">
            <g id="Group-11-Copy" transform="translate(-383.000000, 14.000000)">
                <g id="Group-9" transform="translate(304.000000, 0.000000)">
                    <circle id="Oval" cx="4" cy="29" r="4"></circle>
                    <circle id="Oval-Copy-32" cx="12" cy="41" r="4"></circle>
                    <circle id="Oval-Copy-65" cx="12" cy="66" r="4"></circle>
                    <circle id="Oval-Copy-129" cx="12" cy="16" r="4"></circle>
                    <circle id="Oval-Copy-16" cx="267" cy="29" r="4"></circle>
                    <circle id="Oval-Copy-66" cx="267" cy="53" r="4"></circle>
                    <circle id="Oval-Copy-130" cx="267" cy="4" r="4"></circle>
                    <circle id="Oval-Copy-33" cx="275" cy="41" r="4"></circle>
                    <circle id="Oval-Copy-67" cx="275" cy="66" r="4"></circle>
                    <circle id="Oval-Copy-69" cx="283" cy="78" r="4"></circle>
                    <circle id="Oval-Copy-131" cx="275" cy="16" r="4"></circle>
                    <circle id="Oval-Copy-8" cx="135" cy="29" r="4"></circle>
                    <circle id="Oval-Copy-68" cx="135" cy="53" r="4"></circle>
                    <circle id="Oval-Copy-34" cx="143" cy="41" r="4"></circle>
                    <circle id="Oval-Copy-133" cx="143" cy="16" r="4"></circle>
                    <circle id="Oval-Copy-70" cx="397" cy="53" r="4"></circle>
                    <circle id="Oval-Copy-35" cx="406" cy="41" r="4"></circle>
                    <circle id="Oval-Copy-135" cx="406" cy="16" r="4"></circle>
                    <circle id="Oval-Copy-4" cx="69" cy="29" r="4"></circle>
                    <circle id="Oval-Copy-72" cx="69" cy="53" r="4"></circle>
                    <circle id="Oval-Copy-36" cx="78" cy="41" r="4"></circle>
                    <circle id="Oval-Copy-73" cx="78" cy="66" r="4"></circle>
                    <circle id="Oval-Copy-137" cx="78" cy="16" r="4"></circle>
                    <circle id="Oval-Copy-18" cx="332" cy="29" r="4"></circle>
                    <circle id="Oval-Copy-74" cx="332" cy="53" r="4"></circle>
                    <circle id="Oval-Copy-37" cx="340" cy="41" r="4"></circle>
                    <circle id="Oval-Copy-139" cx="340" cy="16" r="4"></circle>
                    <circle id="Oval-Copy-9" cx="201" cy="29" r="4"></circle>
                    <circle id="Oval-Copy-76" cx="201" cy="53" r="4"></circle>
                    <circle id="Oval-Copy-140" cx="201" cy="4" r="4"></circle>
                    <circle id="Oval-Copy-77" cx="210" cy="66" r="4"></circle>
                    <circle id="Oval-Copy-80" cx="218" cy="78" r="4"></circle>
                    <circle id="Oval-Copy-141" cx="210" cy="16" r="4"></circle>
                    <circle id="Oval-Copy-78" cx="464" cy="53" r="4"></circle>
                    <circle id="Oval-Copy-142" cx="464" cy="4" r="4"></circle>
                    <circle id="Oval-Copy-39" cx="472" cy="41" r="4"></circle>
                    <circle id="Oval-Copy-79" cx="472" cy="66" r="4"></circle>
                    <circle id="Oval-Copy-143" cx="472" cy="16" r="4"></circle>
                    <circle id="Oval-Copy-2" cx="37" cy="29" r="4"></circle>
                    <circle id="Oval-Copy-40" cx="45" cy="41" r="4"></circle>
                    <circle id="Oval-Copy-81" cx="45" cy="66" r="4"></circle>
                    <circle id="Oval-Copy-145" cx="45" cy="16" r="4"></circle>
                    <circle id="Oval-Copy-20" cx="300" cy="29" r="4"></circle>
                    <circle id="Oval-Copy-82" cx="300" cy="53" r="4"></circle>
                    <circle id="Oval-Copy-41" cx="307" cy="41" r="4"></circle>
                    <circle id="Oval-Copy-10" cx="168" cy="29" r="4"></circle>
                    <circle id="Oval-Copy-84" cx="168" cy="53" r="4"></circle>
                    <circle id="Oval-Copy-149" cx="176" cy="16" r="4"></circle>
                    <circle id="Oval-Copy-86" cx="431" cy="53" r="4"></circle>
                    <circle id="Oval-Copy-150" cx="431" cy="4" r="4"></circle>
                    <circle id="Oval-Copy-43" cx="439" cy="41" r="4"></circle>
                    <circle id="Oval-Copy-87" cx="439" cy="66" r="4"></circle>
                    <circle id="Oval-Copy-151" cx="439" cy="16" r="4"></circle>
                    <circle id="Oval-Copy-5" cx="103" cy="29" r="4"></circle>
                    <circle id="Oval-Copy-88" cx="103" cy="53" r="4"></circle>
                    <circle id="Oval-Copy-44" cx="111" cy="41" r="4"></circle>
                    <circle id="Oval-Copy-153" cx="111" cy="16" r="4"></circle>
                    <circle id="Oval-Copy-22" cx="365" cy="29" r="4"></circle>
                    <circle id="Oval-Copy-90" cx="365" cy="53" r="4"></circle>
                    <circle id="Oval-Copy-45" cx="374" cy="41" r="4"></circle>
                    <circle id="Oval-Copy-155" cx="374" cy="16" r="4"></circle>
                    <circle id="Oval-Copy-11" cx="233" cy="29" r="4"></circle>
                    <circle id="Oval-Copy-92" cx="233" cy="53" r="4"></circle>
                    <circle id="Oval-Copy-156" cx="233" cy="4" r="4"></circle>
                    <circle id="Oval-Copy-46" cx="242" cy="41" r="4"></circle>
                    <circle id="Oval-Copy-93" cx="242" cy="66" r="4"></circle>
                    <circle id="Oval-Copy-96" cx="250" cy="78" r="4"></circle>
                    <circle id="Oval-Copy-157" cx="242" cy="16" r="4"></circle>
                    <circle id="Oval-Copy-94" cx="496" cy="53" r="4"></circle>
                    <circle id="Oval-Copy-158" cx="496" cy="4" r="4"></circle>
                    <circle id="Oval-Copy-47" cx="504" cy="41" r="4"></circle>
                    <circle id="Oval-Copy-95" cx="504" cy="66" r="4"></circle>
                    <circle id="Oval-Copy-159" cx="504" cy="16" r="4"></circle>
                    <circle id="Oval-Copy" cx="21" cy="29" r="4"></circle>
                    <circle id="Oval-Copy-48" cx="29" cy="41" r="4"></circle>
                    <circle id="Oval-Copy-97" cx="29" cy="66" r="4"></circle>
                    <circle id="Oval-Copy-161" cx="29" cy="16" r="4"></circle>
                    <circle id="Oval-Copy-24" cx="283" cy="29" r="4"></circle>
                    <circle id="Oval-Copy-98" cx="283" cy="53" r="4"></circle>
                    <circle id="Oval-Copy-162" cx="283" cy="4" r="4"></circle>
                    <circle id="Oval-Copy-49" cx="292" cy="41" r="4"></circle>
                    <circle id="Oval-Copy-99" cx="292" cy="66" r="4"></circle>
                    <circle id="Oval-Copy-101" cx="300" cy="78" r="4"></circle>
                    <circle id="Oval-Copy-12" cx="151" cy="29" r="4"></circle>
                    <circle id="Oval-Copy-100" cx="151" cy="53" r="4"></circle>
                    <circle id="Oval-Copy-165" cx="160" cy="16" r="4"></circle>
                    <circle id="Oval-Copy-102" cx="414" cy="53" r="4"></circle>
                    <circle id="Oval-Copy-166" cx="414" cy="4" r="4"></circle>
                    <circle id="Oval-Copy-51" cx="422" cy="41" r="4"></circle>
                    <circle id="Oval-Copy-167" cx="422" cy="16" r="4"></circle>
                    <circle id="Oval-Copy-6" cx="86" cy="29" r="4"></circle>
                    <circle id="Oval-Copy-104" cx="86" cy="53" r="4"></circle>
                    <circle id="Oval-Copy-52" cx="94" cy="41" r="4"></circle>
                    <circle id="Oval-Copy-105" cx="94" cy="66" r="4"></circle>
                    <circle id="Oval-Copy-169" cx="94" cy="16" r="4"></circle>
                    <circle id="Oval-Copy-26" cx="349" cy="29" r="4"></circle>
                    <circle id="Oval-Copy-106" cx="349" cy="53" r="4"></circle>
                    <circle id="Oval-Copy-53" cx="357" cy="41" r="4"></circle>
                    <circle id="Oval-Copy-171" cx="357" cy="16" r="4"></circle>
                    <circle id="Oval-Copy-13" cx="218" cy="29" r="4"></circle>
                    <circle id="Oval-Copy-108" cx="218" cy="53" r="4"></circle>
                    <circle id="Oval-Copy-172" cx="218" cy="4" r="4"></circle>
                    <circle id="Oval-Copy-109" cx="225" cy="66" r="4"></circle>
                    <circle id="Oval-Copy-115" cx="233" cy="78" r="4"></circle>
                    <circle id="Oval-Copy-173" cx="225" cy="16" r="4"></circle>
                    <circle id="Oval-Copy-110" cx="480" cy="53" r="4"></circle>
                    <circle id="Oval-Copy-174" cx="480" cy="4" r="4"></circle>
                    <circle id="Oval-Copy-55" cx="488" cy="41" r="4"></circle>
                    <circle id="Oval-Copy-111" cx="488" cy="66" r="4"></circle>
                    <circle id="Oval-Copy-175" cx="488" cy="16" r="4"></circle>
                    <circle id="Oval-Copy-3" cx="53" cy="29" r="4"></circle>
                    <circle id="Oval-Copy-112" cx="53" cy="53" r="4"></circle>
                    <circle id="Oval-Copy-56" cx="61" cy="41" r="4"></circle>
                    <circle id="Oval-Copy-113" cx="61" cy="66" r="4"></circle>
                    <circle id="Oval-Copy-177" cx="61" cy="16" r="4"></circle>
                    <circle id="Oval-Copy-28" cx="315" cy="29" r="4"></circle>
                    <circle id="Oval-Copy-114" cx="315" cy="53" r="4"></circle>
                    <circle id="Oval-Copy-57" cx="324" cy="41" r="4"></circle>
                    <circle id="Oval-Copy-14" cx="185" cy="29" r="4"></circle>
                    <circle id="Oval-Copy-116" cx="185" cy="53" r="4"></circle>
                    <circle id="Oval-Copy-180" cx="185" cy="4" r="4"></circle>
                    <circle id="Oval-Copy-117" cx="193" cy="66" r="4"></circle>
                    <circle id="Oval-Copy-121" cx="201" cy="78" r="4"></circle>
                    <circle id="Oval-Copy-181" cx="193" cy="16" r="4"></circle>
                    <circle id="Oval-Copy-118" cx="447" cy="53" r="4"></circle>
                    <circle id="Oval-Copy-182" cx="447" cy="4" r="4"></circle>
                    <circle id="Oval-Copy-59" cx="456" cy="41" r="4"></circle>
                    <circle id="Oval-Copy-119" cx="456" cy="66" r="4"></circle>
                    <circle id="Oval-Copy-183" cx="456" cy="16" r="4"></circle>
                    <circle id="Oval-Copy-7" cx="119" cy="29" r="4"></circle>
                    <circle id="Oval-Copy-120" cx="119" cy="53" r="4"></circle>
                    <circle id="Oval-Copy-60" cx="128" cy="41" r="4"></circle>
                    <circle id="Oval-Copy-185" cx="128" cy="16" r="4"></circle>
                    <circle id="Oval-Copy-30" cx="382" cy="29" r="4"></circle>
                    <circle id="Oval-Copy-122" cx="382" cy="53" r="4"></circle>
                    <circle id="Oval-Copy-61" cx="390" cy="41" r="4"></circle>
                    <circle id="Oval-Copy-187" cx="390" cy="16" r="4"></circle>
                    <circle id="Oval-Copy-15" cx="250" cy="29" r="4"></circle>
                    <circle id="Oval-Copy-124" cx="250" cy="53" r="4"></circle>
                    <circle id="Oval-Copy-188" cx="250" cy="4" r="4"></circle>
                    <circle id="Oval-Copy-62" cx="258" cy="41" r="4"></circle>
                    <circle id="Oval-Copy-125" cx="258" cy="66" r="4"></circle>
                    <circle id="Oval-Copy-128" cx="267" cy="78" r="4"></circle>
                    <circle id="Oval-Copy-189" cx="258" cy="16" r="4"></circle>
                    <circle id="Oval-Copy-126" cx="513" cy="53" r="4"></circle>
                    <circle id="Oval-Copy-190" cx="513" cy="4" r="4"></circle>
                    <circle id="Oval-Copy-63" cx="521" cy="41" r="4"></circle>
                    <circle id="Oval-Copy-127" cx="521" cy="66" r="4"></circle>
                    <circle id="Oval-Copy-191" cx="521" cy="16" r="4"></circle>
                </g>
                <g id="Group-9-Copy" transform="translate(0.000000, 85.000000)">
                    <circle id="Oval" cx="4" cy="29" r="4"></circle>
                    <circle id="Oval-Copy-32" cx="12" cy="41" r="4"></circle>
                    <circle id="Oval-Copy-65" cx="12" cy="66" r="4"></circle>
                    <circle id="Oval-Copy-129" cx="12" cy="16" r="4"></circle>
                    <circle id="Oval-Copy-16" cx="267" cy="29" r="4"></circle>
                    <circle id="Oval-Copy-66" cx="267" cy="53" r="4"></circle>
                    <circle id="Oval-Copy-130" cx="267" cy="4" r="4"></circle>
                    <circle id="Oval-Copy-33" cx="275" cy="41" r="4"></circle>
                    <circle id="Oval-Copy-67" cx="275" cy="66" r="4"></circle>
                    <circle id="Oval-Copy-69" cx="283" cy="78" r="4"></circle>
                    <circle id="Oval-Copy-131" cx="275" cy="16" r="4"></circle>
                    <circle id="Oval-Copy-8" cx="135" cy="29" r="4"></circle>
                    <circle id="Oval-Copy-68" cx="135" cy="53" r="4"></circle>
                    <circle id="Oval-Copy-34" cx="143" cy="41" r="4"></circle>
                    <circle id="Oval-Copy-133" cx="143" cy="16" r="4"></circle>
                    <circle id="Oval-Copy-70" cx="397" cy="53" r="4"></circle>
                    <circle id="Oval-Copy-35" cx="406" cy="41" r="4"></circle>
                    <circle id="Oval-Copy-135" cx="406" cy="16" r="4"></circle>
                    <circle id="Oval-Copy-4" cx="69" cy="29" r="4"></circle>
                    <circle id="Oval-Copy-72" cx="69" cy="53" r="4"></circle>
                    <circle id="Oval-Copy-36" cx="78" cy="41" r="4"></circle>
                    <circle id="Oval-Copy-73" cx="78" cy="66" r="4"></circle>
                    <circle id="Oval-Copy-137" cx="78" cy="16" r="4"></circle>
                    <circle id="Oval-Copy-18" cx="332" cy="29" r="4"></circle>
                    <circle id="Oval-Copy-74" cx="332" cy="53" r="4"></circle>
                    <circle id="Oval-Copy-37" cx="340" cy="41" r="4"></circle>
                    <circle id="Oval-Copy-139" cx="340" cy="16" r="4"></circle>
                    <circle id="Oval-Copy-9" cx="201" cy="29" r="4"></circle>
                    <circle id="Oval-Copy-76" cx="201" cy="53" r="4"></circle>
                    <circle id="Oval-Copy-140" cx="201" cy="4" r="4"></circle>
                    <circle id="Oval-Copy-77" cx="210" cy="66" r="4"></circle>
                    <circle id="Oval-Copy-80" cx="218" cy="78" r="4"></circle>
                    <circle id="Oval-Copy-141" cx="210" cy="16" r="4"></circle>
                    <circle id="Oval-Copy-78" cx="464" cy="53" r="4"></circle>
                    <circle id="Oval-Copy-142" cx="464" cy="4" r="4"></circle>
                    <circle id="Oval-Copy-39" cx="472" cy="41" r="4"></circle>
                    <circle id="Oval-Copy-79" cx="472" cy="66" r="4"></circle>
                    <circle id="Oval-Copy-143" cx="472" cy="16" r="4"></circle>
                    <circle id="Oval-Copy-2" cx="37" cy="29" r="4"></circle>
                    <circle id="Oval-Copy-40" cx="45" cy="41" r="4"></circle>
                    <circle id="Oval-Copy-81" cx="45" cy="66" r="4"></circle>
                    <circle id="Oval-Copy-145" cx="45" cy="16" r="4"></circle>
                    <circle id="Oval-Copy-20" cx="300" cy="29" r="4"></circle>
                    <circle id="Oval-Copy-82" cx="300" cy="53" r="4"></circle>
                    <circle id="Oval-Copy-41" cx="307" cy="41" r="4"></circle>
                    <circle id="Oval-Copy-10" cx="168" cy="29" r="4"></circle>
                    <circle id="Oval-Copy-84" cx="168" cy="53" r="4"></circle>
                    <circle id="Oval-Copy-149" cx="176" cy="16" r="4"></circle>
                    <circle id="Oval-Copy-86" cx="431" cy="53" r="4"></circle>
                    <circle id="Oval-Copy-150" cx="431" cy="4" r="4"></circle>
                    <circle id="Oval-Copy-43" cx="439" cy="41" r="4"></circle>
                    <circle id="Oval-Copy-87" cx="439" cy="66" r="4"></circle>
                    <circle id="Oval-Copy-151" cx="439" cy="16" r="4"></circle>
                    <circle id="Oval-Copy-5" cx="103" cy="29" r="4"></circle>
                    <circle id="Oval-Copy-88" cx="103" cy="53" r="4"></circle>
                    <circle id="Oval-Copy-44" cx="111" cy="41" r="4"></circle>
                    <circle id="Oval-Copy-153" cx="111" cy="16" r="4"></circle>
                    <circle id="Oval-Copy-22" cx="365" cy="29" r="4"></circle>
                    <circle id="Oval-Copy-90" cx="365" cy="53" r="4"></circle>
                    <circle id="Oval-Copy-45" cx="374" cy="41" r="4"></circle>
                    <circle id="Oval-Copy-155" cx="374" cy="16" r="4"></circle>
                    <circle id="Oval-Copy-11" cx="233" cy="29" r="4"></circle>
                    <circle id="Oval-Copy-92" cx="233" cy="53" r="4"></circle>
                    <circle id="Oval-Copy-156" cx="233" cy="4" r="4"></circle>
                    <circle id="Oval-Copy-46" cx="242" cy="41" r="4"></circle>
                    <circle id="Oval-Copy-93" cx="242" cy="66" r="4"></circle>
                    <circle id="Oval-Copy-96" cx="250" cy="78" r="4"></circle>
                    <circle id="Oval-Copy-157" cx="242" cy="16" r="4"></circle>
                    <circle id="Oval-Copy-94" cx="496" cy="53" r="4"></circle>
                    <circle id="Oval-Copy-158" cx="496" cy="4" r="4"></circle>
                    <circle id="Oval-Copy-47" cx="504" cy="41" r="4"></circle>
                    <circle id="Oval-Copy-95" cx="504" cy="66" r="4"></circle>
                    <circle id="Oval-Copy-159" cx="504" cy="16" r="4"></circle>
                    <circle id="Oval-Copy" cx="21" cy="29" r="4"></circle>
                    <circle id="Oval-Copy-48" cx="29" cy="41" r="4"></circle>
                    <circle id="Oval-Copy-97" cx="29" cy="66" r="4"></circle>
                    <circle id="Oval-Copy-161" cx="29" cy="16" r="4"></circle>
                    <circle id="Oval-Copy-24" cx="283" cy="29" r="4"></circle>
                    <circle id="Oval-Copy-98" cx="283" cy="53" r="4"></circle>
                    <circle id="Oval-Copy-162" cx="283" cy="4" r="4"></circle>
                    <circle id="Oval-Copy-49" cx="292" cy="41" r="4"></circle>
                    <circle id="Oval-Copy-99" cx="292" cy="66" r="4"></circle>
                    <circle id="Oval-Copy-101" cx="300" cy="78" r="4"></circle>
                    <circle id="Oval-Copy-12" cx="151" cy="29" r="4"></circle>
                    <circle id="Oval-Copy-100" cx="151" cy="53" r="4"></circle>
                    <circle id="Oval-Copy-165" cx="160" cy="16" r="4"></circle>
                    <circle id="Oval-Copy-102" cx="414" cy="53" r="4"></circle>
                    <circle id="Oval-Copy-166" cx="414" cy="4" r="4"></circle>
                    <circle id="Oval-Copy-51" cx="422" cy="41" r="4"></circle>
                    <circle id="Oval-Copy-167" cx="422" cy="16" r="4"></circle>
                    <circle id="Oval-Copy-6" cx="86" cy="29" r="4"></circle>
                    <circle id="Oval-Copy-104" cx="86" cy="53" r="4"></circle>
                    <circle id="Oval-Copy-52" cx="94" cy="41" r="4"></circle>
                    <circle id="Oval-Copy-105" cx="94" cy="66" r="4"></circle>
                    <circle id="Oval-Copy-169" cx="94" cy="16" r="4"></circle>
                    <circle id="Oval-Copy-26" cx="349" cy="29" r="4"></circle>
                    <circle id="Oval-Copy-106" cx="349" cy="53" r="4"></circle>
                    <circle id="Oval-Copy-53" cx="357" cy="41" r="4"></circle>
                    <circle id="Oval-Copy-171" cx="357" cy="16" r="4"></circle>
                    <circle id="Oval-Copy-13" cx="218" cy="29" r="4"></circle>
                    <circle id="Oval-Copy-108" cx="218" cy="53" r="4"></circle>
                    <circle id="Oval-Copy-172" cx="218" cy="4" r="4"></circle>
                    <circle id="Oval-Copy-109" cx="225" cy="66" r="4"></circle>
                    <circle id="Oval-Copy-115" cx="233" cy="78" r="4"></circle>
                    <circle id="Oval-Copy-173" cx="225" cy="16" r="4"></circle>
                    <circle id="Oval-Copy-110" cx="480" cy="53" r="4"></circle>
                    <circle id="Oval-Copy-174" cx="480" cy="4" r="4"></circle>
                    <circle id="Oval-Copy-55" cx="488" cy="41" r="4"></circle>
                    <circle id="Oval-Copy-111" cx="488" cy="66" r="4"></circle>
                    <circle id="Oval-Copy-175" cx="488" cy="16" r="4"></circle>
                    <circle id="Oval-Copy-3" cx="53" cy="29" r="4"></circle>
                    <circle id="Oval-Copy-112" cx="53" cy="53" r="4"></circle>
                    <circle id="Oval-Copy-56" cx="61" cy="41" r="4"></circle>
                    <circle id="Oval-Copy-113" cx="61" cy="66" r="4"></circle>
                    <circle id="Oval-Copy-177" cx="61" cy="16" r="4"></circle>
                    <circle id="Oval-Copy-28" cx="315" cy="29" r="4"></circle>
                    <circle id="Oval-Copy-114" cx="315" cy="53" r="4"></circle>
                    <circle id="Oval-Copy-57" cx="324" cy="41" r="4"></circle>
                    <circle id="Oval-Copy-14" cx="185" cy="29" r="4"></circle>
                    <circle id="Oval-Copy-116" cx="185" cy="53" r="4"></circle>
                    <circle id="Oval-Copy-180" cx="185" cy="4" r="4"></circle>
                    <circle id="Oval-Copy-117" cx="193" cy="66" r="4"></circle>
                    <circle id="Oval-Copy-121" cx="201" cy="78" r="4"></circle>
                    <circle id="Oval-Copy-181" cx="193" cy="16" r="4"></circle>
                    <circle id="Oval-Copy-118" cx="447" cy="53" r="4"></circle>
                    <circle id="Oval-Copy-182" cx="447" cy="4" r="4"></circle>
                    <circle id="Oval-Copy-59" cx="456" cy="41" r="4"></circle>
                    <circle id="Oval-Copy-119" cx="456" cy="66" r="4"></circle>
                    <circle id="Oval-Copy-183" cx="456" cy="16" r="4"></circle>
                    <circle id="Oval-Copy-7" cx="119" cy="29" r="4"></circle>
                    <circle id="Oval-Copy-120" cx="119" cy="53" r="4"></circle>
                    <circle id="Oval-Copy-60" cx="128" cy="41" r="4"></circle>
                    <circle id="Oval-Copy-185" cx="128" cy="16" r="4"></circle>
                    <circle id="Oval-Copy-30" cx="382" cy="29" r="4"></circle>
                    <circle id="Oval-Copy-122" cx="382" cy="53" r="4"></circle>
                    <circle id="Oval-Copy-61" cx="390" cy="41" r="4"></circle>
                    <circle id="Oval-Copy-187" cx="390" cy="16" r="4"></circle>
                    <circle id="Oval-Copy-15" cx="250" cy="29" r="4"></circle>
                    <circle id="Oval-Copy-124" cx="250" cy="53" r="4"></circle>
                    <circle id="Oval-Copy-188" cx="250" cy="4" r="4"></circle>
                    <circle id="Oval-Copy-62" cx="258" cy="41" r="4"></circle>
                    <circle id="Oval-Copy-125" cx="258" cy="66" r="4"></circle>
                    <circle id="Oval-Copy-128" cx="267" cy="78" r="4"></circle>
                    <circle id="Oval-Copy-189" cx="258" cy="16" r="4"></circle>
                    <circle id="Oval-Copy-126" cx="513" cy="53" r="4"></circle>
                    <circle id="Oval-Copy-190" cx="513" cy="4" r="4"></circle>
                    <circle id="Oval-Copy-63" cx="521" cy="41" r="4"></circle>
                    <circle id="Oval-Copy-127" cx="521" cy="66" r="4"></circle>
                    <circle id="Oval-Copy-191" cx="521" cy="16" r="4"></circle>
                </g>
            </g>
        </g>
    </g>
</svg>