<?xml version="1.0" encoding="UTF-8"?>
<svg width="41px" height="46px" viewBox="0 0 41 46" version="1.1" xmlns="http://www.w3.org/2000/svg" xmlns:xlink="http://www.w3.org/1999/xlink">
    <title>Combined Shape</title>
    <g id="✅-Finals" stroke="none" stroke-width="1" fill="none" fill-rule="evenodd">
        <g id="Movie-Details-Pg" transform="translate(-370.000000, -878.000000)" fill="#FFFFFF" fill-rule="nonzero">
            <path d="M390.944444,902.452991 C402.006661,902.452991 410.974359,911.406786 410.974359,922.451852 C410.974359,923.240785 410.333809,923.880342 409.543651,923.880342 C408.753492,923.880342 408.112943,923.240785 408.112943,922.451852 C408.112943,915.836016 404.359233,910.095546 398.862298,907.23781 L398.863248,907.112508 C398.863248,911.742432 395.109328,915.495726 390.478632,915.495726 C386.061398,915.495726 382.441969,912.080488 382.117666,907.746915 C377.119485,910.743719 373.775946,916.207928 373.775946,922.451852 C373.775946,923.240785 373.135396,923.880342 372.345238,923.880342 C371.55508,923.880342 370.91453,923.240785 370.91453,922.451852 C370.91453,911.406786 379.882228,902.452991 390.944444,902.452991 Z M390.944444,905.309972 C388.812969,905.309972 386.772214,905.697792 384.889101,906.406614 L384.888889,907.112508 C384.888889,910.199124 387.391502,912.70132 390.478632,912.70132 C393.455508,912.70132 395.888872,910.374661 396.058887,907.440893 L396.068376,907.112508 L396.068364,906.086404 C394.45018,905.581856 392.729112,905.309972 390.944444,905.309972 Z M390.944444,878.230769 C397.375966,878.230769 402.589744,883.444547 402.589744,889.876068 C402.589744,896.30759 397.375966,901.521368 390.944444,901.521368 C384.512923,901.521368 379.299145,896.30759 379.299145,889.876068 C379.299145,888.142354 379.678007,886.497127 380.357455,885.018663 C380.115203,884.454891 380.221124,883.766554 380.668965,883.311508 C380.937539,883.038612 381.28111,882.898367 381.626759,882.889353 C383.750389,880.061207 387.133656,878.230769 390.944444,878.230769 Z M382.596618,887.3026 L382.56748,887.396411 C382.335162,888.182463 382.21047,889.014704 382.21047,889.876068 C382.21047,894.699709 386.120804,898.610043 390.944444,898.610043 C395.666135,898.610043 399.512716,894.863257 399.673207,890.180668 C397.738558,890.904103 395.698049,891.274362 393.640125,891.273504 C389.61934,891.274416 385.740077,889.862038 382.596618,887.3026 Z M390.944444,881.142094 C388.101496,881.142094 385.575799,882.500414 383.980938,884.603471 C386.687168,886.953202 390.098217,888.255364 393.640383,888.25456 C395.557767,888.25536 397.456565,887.873557 399.236889,887.130853 C398.086825,883.651647 394.808704,881.142094 390.944444,881.142094 Z" id="Combined-Shape"></path>
        </g>
    </g>
</svg>