<?xml version="1.0" encoding="UTF-8"?>
<svg width="19px" height="17px" viewBox="0 0 19 17" version="1.1" xmlns="http://www.w3.org/2000/svg" xmlns:xlink="http://www.w3.org/1999/xlink">
    <title>Group 2</title>
    <g id="Movies" stroke="none" stroke-width="1" fill="none" fill-rule="evenodd">
        <g id="List-byGenre" transform="translate(-67.000000, -133.000000)" fill="#393939" fill-rule="nonzero">
            <g id="Group-12" transform="translate(67.750000, 128.000000)">
                <g id="Group-2" transform="translate(0.000000, 5.661176)">
                    <path d="M9.5,0 C9.75313051,0 9.96232731,0.188102588 9.99543559,0.432152962 L10,0.5 L10,15.5 C10,15.7761424 9.77614237,16 9.5,16 C9.24686949,16 9.03767269,15.8118974 9.00456441,15.567847 L9,15.5 L9,0.5 C9,0.223857625 9.22385763,0 9.5,0 Z" id="Path" transform="translate(9.500000, 8.000000) scale(-1, 1) rotate(-270.000000) translate(-9.500000, -8.000000) "></path>
                    <path d="M4.62287638,3.919767 C4.81222149,3.73181413 5.10851567,3.71472751 5.31730606,3.86850713 L5.37712362,3.919767 L12.8437903,11.3315317 C13.0520699,11.5382799 13.0520699,11.8734848 12.8437903,12.080233 C12.6544452,12.2681859 12.358151,12.2852725 12.1493606,12.1314929 L12.0895431,12.080233 L5,5.04305882 L-2.08954305,12.080233 C-2.27888816,12.2681859 -2.57518234,12.2852725 -2.78397273,12.1314929 L-2.84379028,12.080233 C-3.03313539,11.8922801 -3.05034859,11.5981646 -2.89542986,11.3909094 L-2.84379028,11.3315317 L4.62287638,3.919767 Z" id="Path" transform="translate(5.000000, 8.000000) scale(-1, 1) rotate(-270.000000) translate(-5.000000, -8.000000) "></path>
                </g>
            </g>
        </g>
    </g>
</svg>