<?xml version="1.0" encoding="UTF-8"?>
<svg width="8px" height="5px" viewBox="0 0 8 5" version="1.1" xmlns="http://www.w3.org/2000/svg" xmlns:xlink="http://www.w3.org/1999/xlink">
    <title>Path</title>
    <g id="Movies" stroke="none" stroke-width="1" fill="none" fill-rule="evenodd">
        <g id="List" transform="translate(-1323.000000, -1334.000000)" fill="#63727D" fill-rule="nonzero">
            <g id="Group-4-Copy" transform="translate(1183.000000, 1315.000000)">
                <g id="Group-3" transform="translate(16.000000, 13.000000)">
                    <g id="Path-2" transform="translate(124.000000, 6.561000)">
                        <path d="M0.0732150593,0.0732315505 C0.16196644,-0.0155281102 0.300853958,-0.0236032722 0.398727843,0.0490103161 L0.42676845,0.0732150593 L3.99966667,3.646 L7.57323155,0.0732150593 C7.66199121,-0.0155363215 7.80087948,-0.0235985269 7.89874659,0.0490241915 L7.92678494,0.0732315505 C8.01553632,0.161991211 8.02359853,0.300879482 7.95097581,0.398746592 L7.92676845,0.426784941 L4.3535692,3.99965076 C4.25984315,4.0935104 4.13264314,4.14625144 4,4.14625144 C3.88393725,4.14625144 3.7720419,4.10587158 3.68318224,4.03298788 L3.64656488,3.99978494 L0.0732315505,0.426784941 C-0.0244040763,0.329158422 -0.0244114596,0.170867177 0.0732150593,0.0732315505 Z" id="Path"></path>
                    </g>
                </g>
            </g>
        </g>
    </g>
</svg>