<?xml version="1.0" encoding="UTF-8"?>
<svg width="24px" height="24px" viewBox="0 0 24 24" version="1.1" xmlns="http://www.w3.org/2000/svg" xmlns:xlink="http://www.w3.org/1999/xlink">
    <title>Combined Shape</title>
    <g id="Movies" stroke="none" stroke-width="1" fill="none" fill-rule="evenodd">
        <g id="List" transform="translate(-21.000000, -25.000000)" fill="#FFFFFF" fill-rule="nonzero">
            <path d="M39,25.024 C39.3796958,25.024 39.693491,25.3061539 39.7431534,25.6722294 L39.75,25.774 L39.75,33.226 L42.4599935,33.2258554 C42.470336,33.2257349 42.480706,33.2258298 42.4910977,33.2261432 L44.25,33.226 C44.6642136,33.226 45,33.5617864 45,33.976 C45,34.3556958 44.7178461,34.669491 44.3517706,34.7191534 L44.25,34.726 L43.03,34.726 L41.4024412,40.3139151 C41.6584845,40.7385057 41.7265009,41.2555637 41.5819169,41.7346518 L41.5289743,41.884996 C41.2697384,42.5372827 40.6420694,42.968282 39.932,42.976 L39.932,42.976 L38.519,42.976 L34.534,45.238 L38.6221042,47.5748176 C38.9817423,47.7803251 39.1066898,48.2384661 38.9011824,48.5981042 C38.7128005,48.9277724 38.3121363,49.0602354 37.9696543,48.9217302 L37.8778958,48.8771824 L33.016,46.099 L28.120189,48.878273 C27.7599486,49.0827228 27.3021767,48.9564294 27.097727,48.596189 C26.9103147,48.2659686 27.0008185,47.8537947 27.2946808,47.6299139 L27.379811,47.573727 L31.501,45.234 L27.55,42.976 L26.0558012,42.976 C25.4040642,42.9688333 24.8163072,42.5966944 24.5293829,42.0244917 L24.4686176,41.8889686 C24.3253339,41.5343489 24.303736,41.151772 24.3935599,40.7953335 L22.97,34.726 L21.75,34.726 C21.3357864,34.726 21,34.3902136 21,33.976 C21,33.5963042 21.2821539,33.282509 21.6482294,33.2328466 L21.75,33.226 L26.25,33.226 L26.25,25.774 C26.25,25.3597864 26.5857864,25.024 27,25.024 C27.3796958,25.024 27.693491,25.3061539 27.7431534,25.6722294 L27.747,25.725 L38.253,25.725 L38.2568466,25.6722294 C38.306509,25.3061539 38.6203042,25.024 39,25.024 Z M35.479,42.976 L30.575,42.976 L33.019,44.372 L35.479,42.976 Z M39.043,39.976 L26.956,39.976 L25.915457,41.0400766 C25.856403,41.1009835 25.8305225,41.1851646 25.8436877,41.2687754 L25.8436877,41.2687754 L25.8609743,41.331004 C25.8954392,41.4177242 25.9788865,41.4750247 26.064,41.476 L26.064,41.476 L38.3126377,41.4759198 C38.3229811,41.4758 38.3333147,41.4758948 38.3436318,41.4762023 L39.9238012,41.4760448 C40.0171135,41.4750247 40.1005608,41.4177242 40.1366176,41.3270314 C40.1763444,41.2287098 40.1543605,41.1162102 40.0820622,41.041639 L40.0820622,41.041639 L39.043,39.976 Z M26.25,34.726 L24.511,34.726 L25.572,39.245 L26.1048925,38.7015109 C26.1484783,38.6569596 26.1970412,38.6184135 26.2492946,38.5864137 L26.25,34.726 Z M41.469,34.726 L39.75,34.726 L39.7514024,38.5868411 C39.7698491,38.5981654 39.7878344,38.6103062 39.8053016,38.6232396 L39.8959378,38.702361 L40.214,39.028 L41.469,34.726 Z M38.25,36.977 L27.75,37.006 L27.75,38.476 L38.25,38.476 L38.25,36.977 Z M38.25,27.226 L27.75,27.226 L27.75,35.506 L38.25,35.478 L38.25,27.226 Z M33,28.4249 C33.3853607,28.4249 33.738158,28.6410424 33.9171046,28.9921705 L33.9171046,28.9921705 L34.373,29.913 L35.4021827,30.0618433 C35.7398146,30.1110593 36.027701,30.3245992 36.1752896,30.6287755 L36.1752896,30.6287755 L36.2238821,30.7469463 C36.3487106,31.118153 36.2488428,31.5280582 35.9684356,31.7991087 L35.9684356,31.7991087 L35.224,32.52 L35.3995597,33.5382947 C35.4572412,33.8803721 35.3365732,34.2249979 35.0849828,34.4566248 L35.0849828,34.4566248 L34.9845921,34.5379624 C34.6697664,34.761025 34.2563485,34.7883941 33.9160166,34.6093851 L33.9160166,34.6093851 L32.999,34.129 L32.0851352,34.6077805 C31.7815941,34.767437 31.4212162,34.7635517 31.1231141,34.6035895 L31.1231141,34.6035895 L31.0144776,34.5363021 C30.6963805,34.3101941 30.5355486,33.9221318 30.6009455,33.5343345 L30.6009455,33.5343345 L30.775,32.524 L30.0327406,31.8032482 C29.7824443,31.5613015 29.6757257,31.2105428 29.7388888,30.8868948 L29.7388888,30.8868948 L29.7705895,30.767063 C29.8863013,30.3935466 30.2048137,30.118666 30.5989567,30.0576781 L30.5989567,30.0576781 L31.627,29.909 L32.0868182,28.9843637 C32.2423949,28.6791892 32.5384346,28.4745017 32.8729517,28.4327832 L32.8729517,28.4327832 Z M32.999,30.519 L32.8583386,30.8023717 C32.7085776,31.1030561 32.42062,31.3109474 32.0890433,31.3583219 L32.0890433,31.3583219 L31.774,31.403 L32.0019985,31.6244997 C32.2138222,31.829059 32.3248762,32.1138492 32.3108129,32.4034676 L32.3108129,32.4034676 L32.2970545,32.5276655 L32.244,32.831 L32.5241739,32.6855325 C32.7849548,32.5490226 33.0897945,32.5319589 33.3616955,32.6343965 L33.3616955,32.6343965 L33.4759834,32.6856149 L33.756,32.832 L33.703077,32.5254242 C33.6526539,32.2353013 33.7309271,31.9398157 33.912498,31.714794 L33.912498,31.714794 L33.9965644,31.6228913 L34.218,31.406 L33.9119187,31.3624599 C33.6209473,31.3208865 33.3641084,31.156523 33.2036038,30.9136135 L33.2036038,30.9136135 L33.1408954,30.8048295 L32.999,30.519 Z" id="Combined-Shape"></path>
        </g>
    </g>
</svg>