<?xml version="1.0" encoding="UTF-8"?>
<svg width="16px" height="16px" viewBox="0 0 16 16" version="1.1" xmlns="http://www.w3.org/2000/svg" xmlns:xlink="http://www.w3.org/1999/xlink">
    <title>Path Copy</title>
    <g id="Movies" stroke="none" stroke-width="1" fill="none" fill-rule="evenodd">
        <g id="List" transform="translate(-513.000000, -553.000000)" fill="#2245E1" fill-rule="nonzero">
            <g id="Group-12" transform="translate(513.000000, 552.300000)">
                <path d="M7.7922097,0.710337771 C7.11164387,0.778831625 6.50388856,1.18342544 6.18013114,1.7967331 L4.58849715,4.93206064 L2.05071777,4.93358532 C1.24315945,4.913503 0.480653792,5.40788128 0.157698328,6.17936997 L0.0874423782,6.37447933 C-0.131911763,7.09717459 0.0674453055,7.89011051 0.617867784,8.42340899 L3.02409173,10.795995 L1.69338461,13.8551946 C1.34979932,14.6810616 1.56626134,15.6141754 2.22401982,16.191717 L2.39431634,16.325986 C3.03917223,16.7811108 3.89737677,16.8259693 4.59141647,16.4235866 L8.00063749,14.5040263 L11.4241752,16.430894 C12.168516,16.8625495 13.12102,16.7692585 13.7787784,16.191717 L13.9339599,16.0402017 C14.4687759,15.4595214 14.6249809,14.6136826 14.316783,13.8725135 L12.9741367,10.7883716 L15.3888467,8.40898171 C15.9823448,7.83400541 16.1650088,6.94323524 15.8420534,6.17174655 L15.7523694,5.98478506 C15.3915071,5.32143649 14.6869712,4.90758152 13.9211399,4.92630279 L11.4066847,4.92443722 L9.824616,1.81225347 C9.46044085,1.12209468 8.76067024,0.7 7.99835258,0.7 L7.7922097,0.710337771 Z M7.99759094,3.26253175 L9.68933561,6.58817124 L9.77142935,6.72509207 C9.98321175,7.02814127 10.3314351,7.21298778 10.7075006,7.21298778 L13.3458163,7.21146309 L10.8122907,9.70977829 L10.6972445,9.84195381 C10.4553971,10.1671002 10.4012173,10.6015874 10.5664453,10.9812595 L11.9169825,14.0847382 L8.56046898,12.1959875 L8.40720354,12.1241234 C8.09306369,12.0043547 7.73864241,12.0283426 7.44064329,12.1960791 L4.08581576,14.0847382 L5.43327893,10.9889462 L5.49076262,10.8233468 C5.59397616,10.4313488 5.48229564,10.0079732 5.18746102,9.71740171 L2.65241216,7.21908651 L5.28920454,7.2206112 C5.71933204,7.2206112 6.1130058,6.97880257 6.30779569,6.59495577 L7.99759094,3.26253175 Z" id="Path-Copy"></path>
            </g>
        </g>
    </g>
</svg>